<svg xmlns="http://www.w3.org/2000/svg" version="1.1" xmlns:xlink="http://www.w3.org/1999/xlink" xmlns:svgjs="http://svgjs.dev/svgjs" width="1440" height="560" preserveAspectRatio="none" viewBox="0 0 1440 560"><g mask="url(&quot;#SvgjsMask1009&quot;)" fill="none"><rect width="1440" height="560" x="0" y="0" fill="rgba(235, 152, 48, 1)"></rect><path d="M0,666.716C125.147,671.605,236.717,599.93,343.629,534.697C452.797,468.088,567.478,399.648,624.945,285.403C683.345,169.302,681.549,33.278,660.346,-94.943C639.456,-221.267,598.956,-350.528,505.339,-437.879C415.286,-521.905,286.542,-546.895,163.893,-558.167C56.875,-568.002,-47.293,-539.896,-146.153,-497.751C-236.143,-459.387,-305.573,-393.367,-377.701,-327.28C-459.364,-252.456,-554.38,-188.36,-595.892,-85.676C-643.392,31.821,-677.773,170.204,-625.488,285.651C-573.181,401.148,-435.073,442.537,-326.795,508.503C-221.303,572.772,-123.434,661.893,0,666.716" fill="#cf7c14"></path><path d="M1440 935.323C1518.2069999999999 939.375 1595.329 942.307 1669.45 917.031 1759.568 886.3 1860.983 856.193 1910.513 774.876 1961.1219999999998 691.787 1947.4569999999999 585.25 1929.808 489.576 1912.655 396.59000000000003 1881.174 302.014 1811.4940000000001 238.098 1744.781 176.904 1648.1100000000001 172.26600000000002 1560.222 150.563 1476.386 129.861 1394.171 99.483 1309.051 114.02800000000002 1217.713 129.635 1129.816 168.827 1065.118 235.163 998.351 303.62 941.841 393.034 943.685 488.641 945.4680000000001 581.108 1021.8299999999999 650.922 1074.6 726.873 1118.2939999999999 789.761 1158.8229999999999 856.076 1225.338 894.021 1289.939 930.874 1365.727 931.475 1440 935.323" fill="#f0b264"></path></g><defs><mask id="SvgjsMask1009"><rect width="1440" height="560" fill="#ffffff"></rect></mask></defs></svg>